HIERARCHY
ROOT hips
{
  OFFSET -0.00735851563513279 12.18665635585785 0.12248523347079754
  CHANNELS 6 Xposition Yposition Zposition Yrotation Xrotation Zrotation
  JOINT spine
  {
    OFFSET 1.0244548320770264e-7 0.5955291986465454 0
    CHANNELS 3 Yrotation Xrotation Zrotation
    JOINT chest
    {
      OFFSET 0 1.2719063864449713 0
      CHANNELS 3 Yrotation Xrotation Zrotation
      JOINT upperChest
      {
        OFFSET 0 1.490802666915459 0
        CHANNELS 3 Yrotation Xrotation Zrotation
        JOINT neck
        {
          OFFSET 0 1.3131953345263365 0
          CHANNELS 3 Yrotation Xrotation Zrotation
          JOINT head
          {
            OFFSET 0 0.8653679716847534 0
            CHANNELS 3 Yrotation Xrotation Zrotation
            JOINT leftEye
            {
              OFFSET 0.20629723300226033 0.6721053123474121 0.3036841657012701
              CHANNELS 3 Yrotation Xrotation Zrotation
              End Site
              {
                OFFSET 0.20629723300226033 0.6721053123474121 0.3036841657012701
              }
            }
            JOINT rightEye
            {
              OFFSET -0.20629652100615203 0.6721066236495972 0.30368443205952644
              CHANNELS 3 Yrotation Xrotation Zrotation
              End Site
              {
                OFFSET -0.20629652100615203 0.6721066236495972 0.30368443205952644
              }
            }
          }
        }
        JOINT leftShoulder
        {
          OFFSET 0.24624172446783632 0.959903359413147 0
          CHANNELS 3 Yrotation Xrotation Zrotation
          JOINT leftUpperArm
          {
            OFFSET 0.9650355761446514 0 0
            CHANNELS 3 Yrotation Xrotation Zrotation
            JOINT leftLowerArm
            {
              OFFSET 2.4419134471639827 0 0
              CHANNELS 3 Yrotation Xrotation Zrotation
              JOINT leftHand
              {
                OFFSET 2.3874557408809456 0 0
                CHANNELS 3 Yrotation Xrotation Zrotation
                JOINT leftIndexProximal
                {
                  OFFSET 0.7029628753662109 0.06118142604827881 0.23586585000157356
                  CHANNELS 3 Yrotation Xrotation Zrotation
                  JOINT leftIndexIntermediate
                  {
                    OFFSET 0.36102771759033203 -0.001475214958190918 0.056637559086084366
                    CHANNELS 3 Yrotation Xrotation Zrotation
                    JOINT leftIndexDistal
                    {
                      OFFSET 0.22344785928726196 -0.007408857345581055 0.02531452476978302
                      CHANNELS 3 Yrotation Xrotation Zrotation
                      End Site
                      {
                        OFFSET 0.22344785928726196 -0.007408857345581055 0.02531452476978302
                      }
                    }
                  }
                }
                JOINT leftLittleProximal
                {
                  OFFSET 0.6958752870559692 0.034375786781311035 -0.29472956992685795
                  CHANNELS 3 Yrotation Xrotation Zrotation
                  JOINT leftLittleIntermediate
                  {
                    OFFSET 0.34538060426712036 -0.0030041933059692383 0.00024324655532836914
                    CHANNELS 3 Yrotation Xrotation Zrotation
                    JOINT leftLittleDistal
                    {
                      OFFSET 0.19865047931671143 0.00746917724609375 -0.010377676226198673
                      CHANNELS 3 Yrotation Xrotation Zrotation
                      End Site
                      {
                        OFFSET 0.19865047931671143 0.00746917724609375 -0.010377676226198673
                      }
                    }
                  }
                }
                JOINT leftMiddleProximal
                {
                  OFFSET 0.7272291779518127 0.09209799766540527 0.05257739871740341
                  CHANNELS 3 Yrotation Xrotation Zrotation
                  JOINT leftMiddleIntermediate
                  {
                    OFFSET 0.40590834617614746 -0.014838695526123047 0.026817932724952698
                    CHANNELS 3 Yrotation Xrotation Zrotation
                    JOINT leftMiddleDistal
                    {
                      OFFSET 0.2495119571685791 -0.026458144187927246 0.010310646146535873
                      CHANNELS 3 Yrotation Xrotation Zrotation
                      End Site
                      {
                        OFFSET 0.2495119571685791 -0.026458144187927246 0.010310646146535873
                      }
                    }
                  }
                }
                JOINT leftRingProximal
                {
                  OFFSET 0.7334893345832825 0.09136629104614258 -0.1205735495314002
                  CHANNELS 3 Yrotation Xrotation Zrotation
                  JOINT leftRingIntermediate
                  {
                    OFFSET 0.3775520920753479 -0.005917906761169434 0.001896639820188284
                    CHANNELS 3 Yrotation Xrotation Zrotation
                    JOINT leftRingDistal
                    {
                      OFFSET 0.2177620530128479 0.007703900337219238 0.0027355607599020004
                      CHANNELS 3 Yrotation Xrotation Zrotation
                      End Site
                      {
                        OFFSET 0.2177620530128479 0.007703900337219238 0.0027355607599020004
                      }
                    }
                  }
                }
                JOINT leftThumbProximal
                {
                  OFFSET 0.02235114574432373 -0.07603192329406738 0.1950724683701992
                  CHANNELS 3 Yrotation Xrotation Zrotation
                  JOINT leftThumbIntermediate
                  {
                    OFFSET 0.3551589846611023 -0.02970755100250244 0.36741212010383606
                    CHANNELS 3 Yrotation Xrotation Zrotation
                    JOINT leftThumbDistal
                    {
                      OFFSET 0.23456048965454102 -0.016631245613098145 0.2093813568353653
                      CHANNELS 3 Yrotation Xrotation Zrotation
                      End Site
                      {
                        OFFSET 0.23456048965454102 -0.016631245613098145 0.2093813568353653
                      }
                    }
                  }
                }
              }
            }
          }
        }
        JOINT rightShoulder
        {
          OFFSET -0.24624088185373694 0.9600239992141724 0
          CHANNELS 3 Yrotation Xrotation Zrotation
          JOINT rightUpperArm
          {
            OFFSET -0.9650300767908009 0 0
            CHANNELS 3 Yrotation Xrotation Zrotation
            JOINT rightLowerArm
            {
              OFFSET -2.4420125187833426 0 0
              CHANNELS 3 Yrotation Xrotation Zrotation
              JOINT rightHand
              {
                OFFSET -2.3874255620910265 0 0
                CHANNELS 3 Yrotation Xrotation Zrotation
                JOINT rightIndexProximal
                {
                  OFFSET -0.7029609084129333 0.06117355823516846 0.23587234504520893
                  CHANNELS 3 Yrotation Xrotation Zrotation
                  JOINT rightIndexIntermediate
                  {
                    OFFSET -0.3610270619392395 -0.0014804601669311523 0.05664427950978279
                    CHANNELS 3 Yrotation Xrotation Zrotation
                    JOINT rightIndexDistal
                    {
                      OFFSET -0.2234485149383545 -0.0074127912521362305 0.025317884981632233
                      CHANNELS 3 Yrotation Xrotation Zrotation
                      End Site
                      {
                        OFFSET -0.2234485149383545 -0.0074127912521362305 0.025317884981632233
                      }
                    }
                  }
                }
                JOINT rightLittleProximal
                {
                  OFFSET -0.6958779096603394 0.034366607666015625 -0.29472311586141586
                  CHANNELS 3 Yrotation Xrotation Zrotation
                  JOINT rightLittleIntermediate
                  {
                    OFFSET -0.3453786373138428 -0.003008127212524414 0.00025422871112823486
                    CHANNELS 3 Yrotation Xrotation Zrotation
                    JOINT rightLittleDistal
                    {
                      OFFSET -0.19865179061889648 0.00746917724609375 -0.010371447540819645
                      CHANNELS 3 Yrotation Xrotation Zrotation
                      End Site
                      {
                        OFFSET -0.19865179061889648 0.00746917724609375 -0.010371447540819645
                      }
                    }
                  }
                }
                JOINT rightMiddleProximal
                {
                  OFFSET -0.7272304892539978 0.09209012985229492 0.05258418060839176
                  CHANNELS 3 Yrotation Xrotation Zrotation
                  JOINT rightMiddleIntermediate
                  {
                    OFFSET -0.4059063792228699 -0.014843940734863281 0.026821313425898552
                    CHANNELS 3 Yrotation Xrotation Zrotation
                    JOINT rightMiddleDistal
                    {
                      OFFSET -0.24951326847076416 -0.026460766792297363 0.010313207283616066
                      CHANNELS 3 Yrotation Xrotation Zrotation
                      End Site
                      {
                        OFFSET -0.24951326847076416 -0.026460766792297363 0.010313207283616066
                      }
                    }
                  }
                }
                JOINT rightRingProximal
                {
                  OFFSET -0.7334906458854675 0.09135580062866211 -0.12056719791144133
                  CHANNELS 3 Yrotation Xrotation Zrotation
                  JOINT rightRingIntermediate
                  {
                    OFFSET -0.37755340337753296 -0.005923151969909668 0.0019026175141334534
                    CHANNELS 3 Yrotation Xrotation Zrotation
                    JOINT rightRingDistal
                    {
                      OFFSET -0.21775943040847778 0.007701277732849121 0.0027383523993194103
                      CHANNELS 3 Yrotation Xrotation Zrotation
                      End Site
                      {
                        OFFSET -0.21775943040847778 0.007701277732849121 0.0027383523993194103
                      }
                    }
                  }
                }
                JOINT rightThumbProximal
                {
                  OFFSET -0.022347867488861084 -0.07603061199188232 0.19507363624870777
                  CHANNELS 3 Yrotation Xrotation Zrotation
                  JOINT rightThumbIntermediate
                  {
                    OFFSET -0.3550455570220947 -0.029461026191711426 0.36754218488931656
                    CHANNELS 3 Yrotation Xrotation Zrotation
                    JOINT rightThumbDistal
                    {
                      OFFSET -0.23451131582260132 -0.016489624977111816 0.20944765955209732
                      CHANNELS 3 Yrotation Xrotation Zrotation
                      End Site
                      {
                        OFFSET -0.23451131582260132 -0.016489624977111816 0.20944765955209732
                      }
                    }
                  }
                }
              }
            }
          }
        }
      }
    }
  }
  JOINT leftUpperLeg
  {
    OFFSET 0.8483456987887621 -0.42556869983673096 0
    CHANNELS 3 Yrotation Xrotation Zrotation
    JOINT leftLowerLeg
    {
      OFFSET 0 -4.6702112872869534 0
      CHANNELS 3 Yrotation Xrotation Zrotation
      JOINT leftFoot
      {
        OFFSET -0.13096565008163452 -5.202569782733917 -0.2985280640423298
        CHANNELS 3 Yrotation Xrotation Zrotation
        JOINT leftToes
        {
          OFFSET 0.01423943042755127 -0.7568342834711075 1.213271364569664
          CHANNELS 3 Yrotation Xrotation Zrotation
          End Site
          {
            OFFSET 0.01423943042755127 -0.7568342834711075 1.213271364569664
          }
        }
      }
    }
  }
  JOINT rightUpperLeg
  {
    OFFSET -0.8483468051999807 -0.42556607723236084 0
    CHANNELS 3 Yrotation Xrotation Zrotation
    JOINT rightLowerLeg
    {
      OFFSET 0 -4.670219469177788 0
      CHANNELS 3 Yrotation Xrotation Zrotation
      JOINT rightFoot
      {
        OFFSET 0.13097601756453514 -5.202573716640472 -0.29853164963424206
        CHANNELS 3 Yrotation Xrotation Zrotation
        JOINT rightToes
        {
          OFFSET -0.014232628047466278 -0.7568355947732925 1.213272675871849
          CHANNELS 3 Yrotation Xrotation Zrotation
          End Site
          {
            OFFSET -0.014232628047466278 -0.7568355947732925 1.213272675871849
          }
        }
      }
    }
  }
}
MOTION
Frames: 8
Frame Time: 0.03333333333333333
2.242524246886251 0.021226965809417853 7.330594438155166 4.325076696790439 -2.148261415742474 4.479663172267132 -0.2560431001756958 -10.72847922693944 -10.137414398708332 -2.5769204093403153 19.846280577237657 4.910968378723593 0 0 0 -24.42184588401241 0.3080616654656552 -4.042115852564296 -26.327918852140662 16.984913476241385 5.428234809342447 0 0 0 0 0 0 -3.107934661810505 2.105735745453328 -8.665991375514938 18.179580589213696 -10.066518857058144 -63.04314391599802 -84.1097834350444 26.386265727184895 1.1663521622265007 40.936907858679916 15.730360816359187 -39.00052314469329 0 0 0 0 0 0 0 0 0 0 0 0 0 0 0 0 0 0 0 0 0 0 0 0 0 0 0 0 0 0 0 0 0 0 0 0 0 0 0 0 0 0 0 0 0 14.284571772465325 -2.8132561735700463 27.380504682525082 0.5886314794309003 -8.70997443479418 45.54094186631633 -13.300402216590024 -56.53837830682231 16.515630985320467 27.86681896244088 7.188168386582217 -16.791887759355816 0 0 0 0 0 0 0 0 0 0 0 0 0 0 0 0 0 0 0 0 0 0 0 0 0 0 0 0 0 0 0 0 0 0 0 0 0 0 0 0 0 0 0 0 0 -3.379049411572207 -11.25928674198051 -12.058542092920494 9.143668328782532 17.21243657534818 12.49010827714294 -19.502291353408946 16.131945708298762 0.17935161374500552 0 0 0 3.4127702423929938 -30.84794978701792 -2.7091362771009355 59.564347816189525 53.19297585799532 48.65191484958817 -32.73243939570436 13.271464274856513 7.270675053066225 0 0 0
2.183939313513289 0.1459157525718914 7.445071972563528 6.270013441189775 0.7272213886763615 3.194166677844463 -1.4321899862115517 -6.59349248224513 -12.911853589363359 -4.559500954256575 14.195081443645014 10.154143601203506 0 0 0 -25.710226771807 -3.677139044103656 -1.2559113719638164 -27.290615938726994 15.026079839731308 7.5554000958435426 0 0 0 0 0 0 -2.2078010445059095 2.0775631481229375 -6.818862815185127 17.445398725716736 -14.32708215899376 -61.68591567716408 -97.86761424101176 33.34516014556641 0.7708590413740537 38.4333307290905 14.740504508960834 -39.01654495940736 0 0 0 0 0 0 0 0 0 0 0 0 0 0 0 0 0 0 0 0 0 0 0 0 0 0 0 0 0 0 0 0 0 0 0 0 0 0 0 0 0 0 0 0 0 14.186201754025415 -2.7476983937255794 27.090748310004688 -3.355033369123513 -0.7108381032682749 45.811667871324275 -13.026430453814733 -54.64329469277393 16.87093247384881 26.042841914091046 6.479567117122415 -15.837523198683272 0 0 0 0 0 0 0 0 0 0 0 0 0 0 0 0 0 0 0 0 0 0 0 0 0 0 0 0 0 0 0 0 0 0 0 0 0 0 0 0 0 0 0 0 0 -4.042880628571635 -11.877420306858127 -10.763948338182056 6.692563549617816 13.893826637924171 12.394064342382016 -19.748123645569386 17.37640621067179 -1.2864589149945074 0 0 0 4.243795924472998 -34.40374810307915 -2.2339222259104705 57.65570734777582 48.0603300211861 44.52979280883765 -34.349370278147134 13.865053628819702 7.568779323453043 0 0 0
2.1237453684738474 0.13409217837995369 7.54074048713467 7.899450043355642 3.3340299828455446 3.1392626831674044 -1.5998977958675373 -4.721301263358311 -14.336947579500364 -5.036209703641813 12.764882264822418 12.865450912938588 0 0 0 -27.042289328269202 -8.891356352595544 1.0722431565406123 -28.72395955993905 11.794935382781093 11.5486301176506 0 0 0 0 0 0 -2.3863218856887416 2.0668081720602722 -5.186181630160016 21.005053990664248 -26.160609043857427 -60.42806762629429 -106.03174793724655 32.9335542215378 -2.274637097777623 36.974547343476424 14.371009728204449 -39.539103801319946 0 0 0 0 0 0 0 0 0 0 0 0 0 0 0 0 0 0 0 0 0 0 0 0 0 0 0 0 0 0 0 0 0 0 0 0 0 0 0 0 0 0 0 0 0 14.299089735122797 -2.5325289486361835 25.845587063257305 -9.070592646847558 -0.6747023198099632 47.83162665235472 -10.525611666683293 -55.73796439370615 13.96523063778407 26.899511063805942 6.483976871420523 -15.521965758754027 0 0 0 0 0 0 0 0 0 0 0 0 0 0 0 0 0 0 0 0 0 0 0 0 0 0 0 0 0 0 0 0 0 0 0 0 0 0 0 0 0 0 0 0 0 -4.411507247714068 -14.75571089045368 -10.591730471776907 5.615552575677747 15.087570869289928 12.76619436139311 -19.637099216999967 16.477641269055372 -1.2210454980553838 0 0 0 3.9550070166066935 -34.35672430057405 -2.6698365825996184 50.34143864372277 41.15930670054081 33.30005865976758 -35.112006691396374 15.88630450033527 7.21742300277155 0 0 0
2.063551423434406 0.12226860418801594 7.636409001705811 9.532402046852045 5.941343941374461 3.1586775682301305 -1.8774357249464328 -2.8174519858138667 -15.700691578655611 -5.578871309615735 11.358201008701728 15.574487363228968 0 0 0 -28.615940367940574 -14.0453123172248 3.5676501436393733 -30.367057561115224 8.669268833370351 15.582437273286466 0 0 0 0 0 0 -2.565075977897145 2.0611407743312684 -3.553483015384388 24.732913008576375 -38.044931381881156 -59.92391098344684 -114.1052700304713 32.1658576647643 -5.20067313365327 35.5217094389055 13.988783531737047 -40.05093695124495 0 0 0 0 0 0 0 0 0 0 0 0 0 0 0 0 0 0 0 0 0 0 0 0 0 0 0 0 0 0 0 0 0 0 0 0 0 0 0 0 0 0 0 0 0 14.407253953982321 -2.314960206909509 24.601052580752434 -14.781202512024754 -0.43765951277777393 49.83790310207728 -7.856966460579198 -56.756730755233306 10.893999184987333 27.75619277775675 6.4836980383864065 -15.206376069608552 0 0 0 0 0 0 0 0 0 0 0 0 0 0 0 0 0 0 0 0 0 0 0 0 0 0 0 0 0 0 0 0 0 0 0 0 0 0 0 0 0 0 0 0 0 -4.79462361489912 -17.632841281334603 -10.397561910990266 4.54030204357698 16.287868994602107 13.117073958884555 -19.527639816342706 15.578757274804355 -1.1577343116624768 0 0 0 3.665952633786138 -34.31151298201462 -3.105793071374687 45.42501754904594 33.45440556128826 24.232143205138023 -35.895853043274094 17.90279080565446 6.834050850371171 0 0 0
2.0033574783949644 0.1104450299960782 7.732077516276953 11.175721301913299 8.547039393380938 3.2533053804281575 -2.2582423611048674 -0.8854018182073338 -17.005033766160825 -6.185948170281033 9.97817719182934 18.284536515460157 0 0 0 -30.467639836762547 -19.124006745183927 6.278933997987163 -32.2159186661694 5.6660385155080215 19.677459379531054 0 0 0 0 0 0 -2.743918616895518 2.060565385617408 -1.9207777539188033 29.132601931835985 -49.9297340498228 -60.50028172073307 -122.04206074116595 31.062117291751576 -7.943133179993504 34.074856168157986 13.594124355850406 -40.55178539680948 0 0 0 0 0 0 0 0 0 0 0 0 0 0 0 0 0 0 0 0 0 0 0 0 0 0 0 0 0 0 0 0 0 0 0 0 0 0 0 0 0 0 0 0 0 14.51064817344854 -2.0950961268698625 23.357115431665996 -20.479911885944745 -0.0023559929631935036 51.81059676326115 -5.018580691429597 -57.69236758827719 7.655076056903702 28.612856414520987 6.478731055427245 -14.890829336120792 0 0 0 0 0 0 0 0 0 0 0 0 0 0 0 0 0 0 0 0 0 0 0 0 0 0 0 0 0 0 0 0 0 0 0 0 0 0 0 0 0 0 0 0 0 -5.194852357300476 -20.508630731047266 -10.17946609206607 3.4658979076390777 17.494293503381652 13.446522053151167 -19.419669726002684 14.679760194203201 -1.0964663623597237 0 0 0 3.376642101528296 -34.268119455773636 -3.5417900315364355 42.26836386935987 25.266152730726972 16.599932791965028 -36.70352848301895 19.91398827882654 6.416737562003996 0 0 0
1.9872341705526135 -0.0008079502007212747 7.857841393014187 9.448135102277424 5.93013441147276 1.7192869678303428 -1.3088028686966655 -2.1485243494014625 -14.212074147463975 -4.723578270331359 12.509865790893599 15.870559291773374 0 0 0 -28.519794487949802 -13.642966523651873 2.872348371763071 -31.002884205028348 7.638444099627319 18.21715796424378 0 0 0 0 0 0 -2.6394286663762 2.0517808019706987 -1.820471533006872 21.72017721705315 -59.39482176689413 -59.13076560349754 -120.16480428845294 36.508559378437845 -8.839051453107608 32.82651654873636 13.413370284403015 -41.47674323015853 0 0 0 0 0 0 0 0 0 0 0 0 0 0 0 0 0 0 0 0 0 0 0 0 0 0 0 0 0 0 0 0 0 0 0 0 0 0 0 0 0 0 0 0 0 14.490369525153763 -2.124564251030513 23.546535226112585 -18.52167863635446 -2.768559118818868 51.111482099250566 -6.268892007193938 -59.89661405381398 8.349062293411803 27.276115257965273 7.5876725859340715 -17.967410302609775 0 0 0 0 0 0 0 0 0 0 0 0 0 0 0 0 0 0 0 0 0 0 0 0 0 0 0 0 0 0 0 0 0 0 0 0 0 0 0 0 0 0 0 0 0 -4.7321077959089655 -19.275145474180068 -9.012629368160905 5.461923025099005 22.334933972355543 15.04504522267979 -19.598307645687722 11.577084728106277 -1.2383471830332653 0 0 0 3.2002133573917337 -31.693532214223076 -1.4936164098277724 43.20598093681187 25.72943259662197 17.914967561113308 -36.9559540526475 19.46085829843145 6.955055551581365 0 0 0
1.971110862710263 -0.11206093039752076 7.983605269751421 7.797684692372435 3.269523608500808 0.27061545927392106 -0.5850170158611432 -3.3946777338351097 -11.355306127866044 -3.3567672886381468 15.099234508701864 13.497588328451114 0 0 0 -26.93935639801999 -8.06411756182696 -0.2821066727061078 -29.83480383177336 9.640559316719308 16.791810372783655 0 0 0 0 0 0 -2.5349550897318145 2.042813442814847 -1.72018177922226 10.702725148349337 -68.61921848117552 -53.890566994628806 -118.25005949674491 41.97662388631645 -9.567397379581257 31.582319202503477 13.213097075037366 -42.396711196396566 0 0 0 0 0 0 0 0 0 0 0 0 0 0 0 0 0 0 0 0 0 0 0 0 0 0 0 0 0 0 0 0 0 0 0 0 0 0 0 0 0 0 0 0 0 14.469992438542802 -2.1539654416413554 23.735971288897897 -16.522880988373537 -5.508991082563176 50.315415683892766 -7.665824058365204 -62.09198117573702 9.195385861433595 25.87755292239523 8.6234071160318 -21.07751093724267 0 0 0 0 0 0 0 0 0 0 0 0 0 0 0 0 0 0 0 0 0 0 0 0 0 0 0 0 0 0 0 0 0 0 0 0 0 0 0 0 0 0 0 0 0 -4.246382375537679 -18.050784128549584 -7.843776920671283 7.687380789879528 27.11703890424446 16.89478489535231 -19.767478581905433 8.474003355266495 -1.3690995156563786 0 0 0 3.1337764037316327 -29.115329197825258 0.4921246867880759 44.15881581449253 26.173068716191242 19.24335124543376 -37.212178574909714 19.009984423952982 7.4939995737556595 0 0 0
1.954987554867912 -0.22331391059432024 8.109369146488655 6.217574307372251 0.5692758582986693 -1.0985934402471964 -0.09045374052474235 -4.608534794471851 -8.436696975071895 -2.0851432815295237 17.740977670170345 11.157952012001573 0 0 0 -25.68212738551905 -2.4104014661492865 -3.253499581093922 -28.710167871872585 11.670464568032626 15.398952404155606 0 0 0 0 0 0 -2.4304975292519377 2.033663524575747 -1.6199092767698857 -11.178601337450315 -76.88751205538763 -37.618209646091806 -116.24772344244003 47.4607418744294 -10.097887932498761 30.34264143156644 12.993467156461293 -43.311213769798876 0 0 0 0 0 0 0 0 0 0 0 0 0 0 0 0 0 0 0 0 0 0 0 0 0 0 0 0 0 0 0 0 0 0 0 0 0 0 0 0 0 0 0 0 0 14.449517746511383 -2.183298848201585 23.925421327056565 -14.47435316314188 -8.219685096936061 49.41873108618377 -9.247049562221068 -64.27596931175977 10.231208339550143 24.42017416417334 9.582075361132794 -24.22098468375529 0 0 0 0 0 0 0 0 0 0 0 0 0 0 0 0 0 0 0 0 0 0 0 0 0 0 0 0 0 0 0 0 0 0 0 0 0 0 0 0 0 0 0 0 0 -3.7379033059757396 -16.83607688285164 -6.6719159497912885 10.199733208585881 31.825759856159422 19.04999924096079 -19.928430301718237 5.370564722148887 -1.489796073159646 0 0 0 3.1687609224102684 -26.53667563540833 2.4278992573938503 45.126475250121686 26.596625904796053 20.584791461388146 -37.4721786445466 18.56140499546857 8.033628628926678 0 0 0
